# xmcd
#
# Track frame offsets: 
#        150
#        17582
#        34862
#        52130
#        68922
#        88027
#        101895
#        117067
#        135932
#        151400
#        166300
#        183257
#        200860
#        221157
#
# Disc length: 3164 seconds
#
# Revision: 0
# Processed by: cddbd v1.5.2PL0 Copyright (c) Steve Scherf et al.
# Submitted via: ExactAudioCopyFreeDBPlugin 1.0
#
DISCID=c60c5a0e
DTITLE=มงคล อุทก - พิณพเนจร
DYEAR=1900
DGENRE=
TTITLE0=เพลงพิณ
TTITLE1=กาเหว่า
TTITLE2=คืนสู่รัง
TTITLE3=แสงตะเกียง
TTITLE4=โอ๊ย ! ชีวิต
TTITLE5=สหาย
TTITLE6=สบเมย
TTITLE7=เสือใบ
TTITLE8=สิงห์รายวัน
TTITLE9=ลอยนวล
TTITLE10=หัวใจแก่ๆ
TTITLE11=คนไร้ราก
TTITLE12=น้องดาว
TTITLE13=หัวใจติดลบ
EXTD=
EXTT0=
EXTT1=
EXTT2=
EXTT3=
EXTT4=
EXTT5=
EXTT6=
EXTT7=
EXTT8=
EXTT9=
EXTT10=
EXTT11=
EXTT12=
EXTT13=
PLAYORDER=
